<?xml version="1.0" encoding="UTF-8"?>
<svg version="1.1" xmlns="http://www.w3.org/2000/svg" width="512" height="512">
<path d="M0 0 C0.78081436 -0.00710495 1.56162872 -0.0142099 2.36610413 -0.02153015 C35.01855821 -0.25122431 35.01855821 -0.25122431 48.57421875 3.203125 C49.48703613 3.42887207 50.39985352 3.65461914 51.34033203 3.88720703 C82.82424588 11.8675225 109.98263272 26.88363429 133.57421875 49.203125 C134.38375 49.95980469 135.19328125 50.71648437 136.02734375 51.49609375 C160.05528243 74.65509754 175.91720403 105.95719051 183.57421875 138.203125 C183.74083008 138.87601563 183.90744141 139.54890625 184.07910156 140.2421875 C189.84618059 164.6000368 188.7068232 194.10034476 182.57421875 218.203125 C182.36522949 219.04891113 182.15624023 219.89469727 181.94091797 220.76611328 C174.05645137 251.80197243 157.4909083 278.1889381 135.57421875 301.203125 C134.59388672 302.26273437 134.59388672 302.26273437 133.59375 303.34375 C111.34151927 326.68724151 79.58876066 341.83851276 48.57421875 349.203125 C47.90132812 349.36973633 47.2284375 349.53634766 46.53515625 349.70800781 C22.17730695 355.47508684 -7.32300101 354.33572945 -31.42578125 348.203125 C-32.27156738 347.99413574 -33.11735352 347.78514648 -33.98876953 347.56982422 C-65.02462868 339.68535762 -91.41159435 323.11981455 -114.42578125 301.203125 C-115.1321875 300.54957031 -115.83859375 299.89601563 -116.56640625 299.22265625 C-138.25850815 278.54461602 -153.06071809 249.293874 -160.67578125 220.640625 C-161.04533936 219.25895142 -161.04533936 219.25895142 -161.42236328 217.84936523 C-164.92579785 204.08863933 -165.80490124 190.63732288 -165.73828125 176.515625 C-165.73579376 175.67352478 -165.73330627 174.83142456 -165.73074341 173.96380615 C-165.67520923 161.81754408 -165.44006531 150.03186834 -162.42578125 138.203125 C-162.20003418 137.29030762 -161.97428711 136.37749023 -161.74169922 135.43701172 C-153.76570382 103.9701414 -138.75649333 76.76819805 -116.42578125 53.203125 C-115.58402344 52.30851562 -114.74226563 51.41390625 -113.875 50.4921875 C-85.074344 20.73289896 -41.74682018 0.25209954 0 0 Z M5.26171875 67.015625 C2.04016131 71.19171797 2.45461452 75.36106032 2.51171875 80.390625 C2.51623047 81.14021484 2.52074219 81.88980469 2.52539062 82.66210938 C2.53715521 84.50914883 2.5550901 86.35614713 2.57421875 88.203125 C1.91526611 88.19265137 1.25631348 88.18217773 0.57739258 88.17138672 C-30.10225192 87.69080342 -30.10225192 87.69080342 -55.58984375 103.3046875 C-65.86500786 114.19559178 -69.06947145 126.05253792 -68.734375 140.68359375 C-68.09306417 153.4432844 -61.4933047 163.96845995 -52.36328125 172.609375 C-36.02372711 186.04997599 -18.24471077 184.203125 2.57421875 184.203125 C2.57421875 205.323125 2.57421875 226.443125 2.57421875 248.203125 C-2.49953125 248.120625 -7.57328125 248.038125 -12.80078125 247.953125 C-15.17015869 247.92943848 -15.17015869 247.92943848 -17.58740234 247.90527344 C-28.37170781 247.64619921 -37.6254555 246.18485367 -45.42578125 238.203125 C-50.01753287 232.02536447 -52.12600536 226.1589438 -53.30078125 218.578125 C-53.89044738 215.2442434 -54.30997532 213.38096982 -56.17578125 210.515625 C-59.20797233 208.74684687 -60.97090726 208.62731267 -64.42578125 209.203125 C-67.06778509 211.27078018 -68.27660515 212.47479462 -68.95703125 215.796875 C-68.80409391 230.02004783 -63.70409877 240.61585235 -54.11328125 250.953125 C-41.18407623 263.18969404 -25.78405124 264.39821693 -8.86328125 264.265625 C-7.75919922 264.26111328 -6.65511719 264.25660156 -5.51757812 264.25195312 C-2.82025425 264.2402764 -0.12304778 264.22390025 2.57421875 264.203125 C2.53941406 265.28851563 2.50460938 266.37390625 2.46875 267.4921875 C2.44059487 268.93748442 2.41329656 270.38279821 2.38671875 271.828125 C2.36158203 272.54097656 2.33644531 273.25382813 2.31054688 273.98828125 C2.24430563 278.80181192 2.91978201 282.02544006 5.57421875 286.203125 C8.41505516 287.62354321 10.42899153 287.51764772 13.57421875 287.203125 C16.42202494 284.97106069 17.42419541 283.65319501 18.57421875 280.203125 C18.64472989 277.46447213 18.6677964 274.75284912 18.63671875 272.015625 C18.63220703 271.26603516 18.62769531 270.51644531 18.62304688 269.74414062 C18.61128229 267.89710117 18.5933474 266.05010287 18.57421875 264.203125 C19.56264771 264.21883545 19.56264771 264.21883545 20.57104492 264.23486328 C51.25068942 264.71544658 51.25068942 264.71544658 76.73828125 249.1015625 C87.01344536 238.21065822 90.21790895 226.35371208 89.8828125 211.72265625 C89.24150167 198.9629656 82.6417422 188.43779005 73.51171875 179.796875 C57.17216461 166.35627401 39.39314827 168.203125 18.57421875 168.203125 C18.57421875 147.083125 18.57421875 125.963125 18.57421875 104.203125 C26.18484375 104.326875 26.18484375 104.326875 33.94921875 104.453125 C35.52880371 104.46891602 37.10838867 104.48470703 38.73583984 104.50097656 C49.52014531 104.76005079 58.773893 106.22139633 66.57421875 114.203125 C71.16597037 120.38088553 73.27444286 126.2473062 74.44921875 133.828125 C75.03888488 137.1620066 75.45841282 139.02528018 77.32421875 141.890625 C80.35640983 143.65940313 82.11934476 143.77893733 85.57421875 143.203125 C88.21622259 141.13546982 89.42504265 139.93145538 90.10546875 136.609375 C89.95253141 122.38620217 84.85253627 111.79039765 75.26171875 101.453125 C62.20322599 89.06654574 47.05137476 88.00555329 29.94921875 88.140625 C28.84964844 88.14513672 27.75007813 88.14964844 26.6171875 88.15429688 C23.93613872 88.16595361 21.25520943 88.18231483 18.57421875 88.203125 C18.60902344 87.11773437 18.64382813 86.03234375 18.6796875 84.9140625 C18.70784263 83.46876558 18.73514094 82.02345179 18.76171875 80.578125 C18.78685547 79.86527344 18.81199219 79.15242188 18.83789062 78.41796875 C18.90413187 73.60443808 18.22865549 70.38080994 15.57421875 66.203125 C11.77890396 64.30546761 8.6009991 64.39835121 5.26171875 67.015625 Z " fill="#000000" transform="translate(245.42578125,79.796875)"/>
<path d="M0 0 C1.4240918 0.29003906 1.4240918 0.29003906 2.87695312 0.5859375 C32.4362514 6.66670743 61.5852817 17.96175143 86 36 C87.24449847 36.8871302 88.48931425 37.77381536 89.734375 38.66015625 C98.92507315 45.29232066 107.28862646 52.55425882 115.40771484 60.45458984 C116.77528763 61.7819029 118.16130336 63.09016686 119.55078125 64.39453125 C126.10868436 70.67287899 131.56278005 77.75686018 137 85 C137.42958008 85.56879883 137.85916016 86.13759766 138.30175781 86.72363281 C159.04090031 114.35985734 171.95547887 145.29647356 179 179 C179.18079102 179.82000488 179.36158203 180.64000977 179.54785156 181.48486328 C184.96936103 206.87326397 184.54137771 237.68232863 179 263 C178.70996094 264.4240918 178.70996094 264.4240918 178.4140625 265.87695312 C172.33329257 295.4362514 161.03824857 324.5852817 143 349 C142.1128698 350.24449847 141.22618464 351.48931425 140.33984375 352.734375 C133.70767934 361.92507315 126.44574118 370.28862646 118.54541016 378.40771484 C117.2180971 379.77528763 115.90983314 381.16130336 114.60546875 382.55078125 C108.32712101 389.10868436 101.24313982 394.56278005 94 400 C93.43120117 400.42958008 92.86240234 400.85916016 92.27636719 401.30175781 C64.64014266 422.04090031 33.70352644 434.95547887 0 442 C-0.82000488 442.18079102 -1.64000977 442.36158203 -2.48486328 442.54785156 C-27.87349879 447.96941117 -58.68170406 447.53095766 -84 442 C-84.84111328 441.82839355 -85.68222656 441.65678711 -86.54882812 441.47998047 C-116.1207155 435.39261072 -145.3888633 423.64630995 -170 406 C-170.60134766 405.57380371 -171.20269531 405.14760742 -171.82226562 404.70849609 C-181.70395833 397.66965217 -190.71488903 390.00402006 -199.40771484 381.54541016 C-200.77528763 380.2180971 -202.16130336 378.90983314 -203.55078125 377.60546875 C-210.10868436 371.32712101 -215.56278005 364.24313982 -221 357 C-221.64437012 356.14680176 -221.64437012 356.14680176 -222.30175781 355.27636719 C-243.04090031 327.64014266 -255.95547887 296.70352644 -263 263 C-263.18079102 262.17999512 -263.36158203 261.35999023 -263.54785156 260.51513672 C-268.96936103 235.12673603 -268.54137771 204.31767137 -263 179 C-262.70996094 177.5759082 -262.70996094 177.5759082 -262.4140625 176.12304688 C-256.33329257 146.5637486 -245.03824857 117.4147183 -227 93 C-226.1128698 91.75550153 -225.22618464 90.51068575 -224.33984375 89.265625 C-217.70767934 80.07492685 -210.44574118 71.71137354 -202.54541016 63.59228516 C-201.2180971 62.22471237 -199.90983314 60.83869664 -198.60546875 59.44921875 C-192.32712101 52.89131564 -185.24313982 47.43721995 -178 42 C-177.43120117 41.57041992 -176.86240234 41.14083984 -176.27636719 40.69824219 C-148.64014266 19.95909969 -117.70352644 7.04452113 -84 0 C-83.17999512 -0.18079102 -82.35999023 -0.36158203 -81.51513672 -0.54785156 C-56.12673603 -5.96936103 -25.31767137 -5.54137771 0 0 Z M-182.3515625 68.52734375 C-184.24682442 70.29681395 -186.13127883 71.95621589 -188.1328125 73.59375 C-191.88322227 76.74123286 -194.85365968 80.2656756 -198 84 C-198.74121094 84.84175781 -199.48242188 85.68351562 -200.24609375 86.55078125 C-229.02202038 119.83877318 -248.79231163 165.26162467 -249.23828125 209.65234375 C-249.2480751 210.46137146 -249.25786896 211.27039917 -249.26795959 212.10394287 C-249.80272845 267.78246526 -233.37542422 320.39510391 -194.47265625 361.3515625 C-192.70318605 363.24682442 -191.04378411 365.13127883 -189.40625 367.1328125 C-186.25876714 370.88322227 -182.7343244 373.85365968 -179 377 C-178.15824219 377.74121094 -177.31648438 378.48242188 -176.44921875 379.24609375 C-136.29137248 413.96069115 -82.38461045 431.78722307 -29.44360352 428.67700195 C0.65701021 426.43207397 29.42280283 418.21066461 56 404 C56.60585938 403.67773438 57.21171875 403.35546875 57.8359375 403.0234375 C72.18481587 395.31639803 84.78561881 385.71254753 97 375 C97.92039062 374.20335937 98.84078125 373.40671875 99.7890625 372.5859375 C104.97079651 368.03039491 109.59035179 363.29724335 114 358 C114.73605469 357.16339844 115.47210938 356.32679688 116.23046875 355.46484375 C145.0220115 322.18749625 164.79232368 276.73717662 165.23828125 232.34765625 C165.2480751 231.53862854 165.25786896 230.72960083 165.26795959 229.89605713 C165.63416751 191.76759212 159.08377691 156.82080415 141 123 C140.67773438 122.39414063 140.35546875 121.78828125 140.0234375 121.1640625 C132.31639803 106.81518413 122.71254753 94.21438119 112 82 C111.20335937 81.07960938 110.40671875 80.15921875 109.5859375 79.2109375 C105.03039491 74.02920349 100.29724335 69.40964821 95 65 C93.74509766 63.89591797 93.74509766 63.89591797 92.46484375 62.76953125 C25.95364275 5.22407674 -69.92426866 -1.26741496 -182.3515625 68.52734375 Z " fill="#000000" transform="translate(298,35)"/>
<path d="M0 0 C38.58522727 0 38.58522727 0 47.46875 8.296875 C54.86241291 16.52043885 56.58190067 25.23445635 56.3125 36.01171875 C55.83817365 44.39741331 52.22530477 51.402937 46 57 C31.75470054 67.71246519 19.73534575 64 0 64 C0 42.88 0 21.76 0 0 Z " fill="#000000" transform="translate(264,264)"/>
<path d="M0 0 C0 21.12 0 42.24 0 64 C-38.58522727 64 -38.58522727 64 -47.46875 55.703125 C-54.86241291 47.47956115 -56.58190067 38.76554365 -56.3125 27.98828125 C-55.83817365 19.60258669 -52.22530477 12.597063 -46 7 C-31.75470054 -3.71246519 -19.73534575 0 0 0 Z " fill="#000000" transform="translate(248,184)"/>
</svg>
